<?xml version="1.0" encoding="UTF-8" standalone="no"?>
<!-- Created with Inkscape (http://www.inkscape.org/) -->

<svg
   width="78.245255mm"
   height="10.180606mm"
   viewBox="0 0 78.245255 10.180606"
   version="1.1"
   id="svg25795"
   inkscape:version="1.2.1 (9c6d41e410, 2022-07-14)"
   sodipodi:docname="loop.svg"
   xmlns:inkscape="http://www.inkscape.org/namespaces/inkscape"
   xmlns:sodipodi="http://sodipodi.sourceforge.net/DTD/sodipodi-0.dtd"
   xmlns:xlink="http://www.w3.org/1999/xlink"
   xmlns="http://www.w3.org/2000/svg"
   xmlns:svg="http://www.w3.org/2000/svg">
  <sodipodi:namedview
     id="namedview25797"
     pagecolor="#ffffff"
     bordercolor="#000000"
     borderopacity="0.25"
     inkscape:showpageshadow="2"
     inkscape:pageopacity="0.0"
     inkscape:pagecheckerboard="0"
     inkscape:deskcolor="#d1d1d1"
     inkscape:document-units="mm"
     showgrid="false"
     inkscape:zoom="3.659624"
     inkscape:cx="128.975"
     inkscape:cy="4.2354078"
     inkscape:window-width="2560"
     inkscape:window-height="1411"
     inkscape:window-x="4791"
     inkscape:window-y="372"
     inkscape:window-maximized="1"
     inkscape:current-layer="layer2" />
  <defs
     id="defs25792">
    <linearGradient
       inkscape:collect="always"
       id="linearGradient31073">
      <stop
         style="stop-color:#bab7b3;stop-opacity:0;"
         offset="0"
         id="stop31071" />
      <stop
         style="stop-color:#bab7b3;stop-opacity:1;"
         offset="1"
         id="stop31069" />
    </linearGradient>
    <linearGradient
       inkscape:collect="always"
       id="linearGradient31034">
      <stop
         style="stop-color:#bab7b3;stop-opacity:1;"
         offset="0"
         id="stop31030" />
      <stop
         style="stop-color:#bab7b3;stop-opacity:0;"
         offset="1"
         id="stop31032" />
    </linearGradient>
    <linearGradient
       inkscape:collect="always"
       xlink:href="#linearGradient31034"
       id="linearGradient31036"
       x1="1588.43"
       y1="1609.19"
       x2="2205.88"
       y2="1609.19"
       gradientUnits="userSpaceOnUse" />
    <linearGradient
       inkscape:collect="always"
       xlink:href="#linearGradient31073"
       id="linearGradient31075"
       x1="424.88"
       y1="1268.03"
       x2="1010.61"
       y2="1268.03"
       gradientUnits="userSpaceOnUse" />
    <linearGradient
       inkscape:collect="always"
       xlink:href="#linearGradient31034"
       id="linearGradient31036-4"
       x1="1588.4301"
       y1="1609.1899"
       x2="2205.8799"
       y2="1609.1899"
       gradientUnits="userSpaceOnUse" />
  </defs>
  <g
     inkscape:label="Layer 1"
     inkscape:groupmode="layer"
     id="layer1"
     transform="translate(36.287917,-184.17788)">
    <g
       id="g11372"
       style="display:inline;stroke:#bab7b3;stroke-opacity:1"
       transform="matrix(0.26458333,0,0,0.26458333,-243.95408,-244.99804)">
      <g
         id="g11356"
         style="stroke:#bab7b3;stroke-opacity:1">
        <path
           class="cls-1"
           d="m 851.45099,1645.4325 v -15.8992 c 0,-1.6584 -1.34458,-3.003 -4.83304,-3.003 h -40.88354"
           id="path11324"
           style="fill:none;stroke:#bab7b3;stroke-width:1.38706px;stroke-miterlimit:10;stroke-opacity:1" />
        <g
           id="g11332"
           style="stroke:#bab7b3;stroke-opacity:1"
           transform="matrix(0.08669114,0,0,0.08669114,716.83786,1516.6043)">
          <line
             class="cls-1"
             x1="1081.89"
             y1="1391.2"
             x2="1081.89"
             y2="1426.2"
             id="line11326"
             style="fill:none;stroke:#bab7b3;stroke-width:16px;stroke-miterlimit:10;stroke-opacity:1" />
          <path
             class="cls-6"
             d="m 1081.89,1457.05 v 117.51 c 0,19.13 15.51,34.64 34.64,34.64 h 429.65"
             id="path11328"
             style="fill:none;stroke:#bab7b3;stroke-width:16px;stroke-miterlimit:10;stroke-dasharray:0, 0, 71.98, 30.85;stroke-opacity:1" />
          <line
             class="cls-1"
             x1="1561.6"
             y1="1609.1899"
             x2="1596.6"
             y2="1609.1899"
             id="line11330"
             style="fill:none;stroke:#bab7b3;stroke-width:16px;stroke-miterlimit:10;stroke-opacity:1" />
        </g>
        <polyline
           class="cls-1"
           points="1010.61 1268.03 864.86 1268.03 424.88 1268.03"
           id="polyline11334"
           style="fill:none;stroke:url(#linearGradient31075);stroke-width:16px;stroke-miterlimit:10;stroke-opacity:1"
           transform="matrix(0.0335634,0,0,0.08669114,770.61958,1516.6043)" />
        <polyline
           class="cls-1"
           points="1588.43 1609.19 1639.68 1609.19 2205.88 1609.19"
           id="polyline11336"
           style="fill:url(#linearGradient31036);fill-opacity:1;stroke:#bab7b3;stroke-width:16px;stroke-miterlimit:10;stroke-opacity:1"
           transform="matrix(0.30254976,0,0,0.08669114,373.96154,1516.6043)" />
        <polyline
           class="cls-1"
           points="1588.43 1609.19 1639.68 1609.19 2205.88 1609.19"
           id="polyline11336-1"
           style="display:inline;fill:url(#linearGradient31036-4);fill-opacity:1;stroke:#bab7b3;stroke-width:16px;stroke-miterlimit:10;stroke-opacity:1"
           transform="matrix(0.04395338,0,0,0.08669114,983.64529,1516.6049)" />
        <path
           class="cls-1"
           d="m 851.45099,1645.4325 v 7.6713 c 0,0 0.0304,1.1235 1.02383,2.1178 0.99347,0.9944 2.18722,0.8852 2.18722,0.8852 h 2.9683"
           id="path11338"
           style="fill:none;stroke:#bab7b3;stroke-width:1.38706px;stroke-miterlimit:10;stroke-opacity:1" />
        <g
           id="g11346"
           style="stroke:#bab7b3;stroke-opacity:1"
           transform="matrix(0.08669114,0,0,0.08669114,716.83786,1516.6043)">
          <line
             class="cls-1"
             x1="1081.89"
             y1="1391.2"
             x2="1081.89"
             y2="1356.2"
             id="line11340"
             style="fill:none;stroke:#bab7b3;stroke-width:16px;stroke-miterlimit:10;stroke-opacity:1" />
          <path
             class="cls-3"
             d="m 1081.89,1331.19 v -28.48 c 0,0 -0.35,-12.96 -11.81,-24.43 -4.03,-4.03 -8.34,-6.49 -12.24,-7.98"
             id="path11342"
             style="fill:none;stroke:#bab7b3;stroke-width:16px;stroke-miterlimit:10;stroke-dasharray:0, 0, 58.36, 25.01;stroke-opacity:1" />
          <path
             class="cls-1"
             d="m 1045.61,1268.04 c -0.49,0.01 -0.76,0.04 -0.76,0.04 h -34.24"
             id="path11344"
             style="fill:none;stroke:#bab7b3;stroke-width:16px;stroke-miterlimit:10;stroke-opacity:1" />
        </g>
        <line
           class="cls-2"
           x1="828.58795"
           y1="1656.1102"
           x2="832.34338"
           y2="1659.8666"
           id="line11348"
           style="fill:none;stroke:#bab7b3;stroke-width:1.38706px;stroke-linecap:round;stroke-miterlimit:10;stroke-opacity:1" />
        <line
           class="cls-2"
           x1="828.58795"
           y1="1656.1102"
           x2="832.34338"
           y2="1652.3547"
           id="line11350"
           style="fill:none;stroke:#bab7b3;stroke-width:1.38706px;stroke-linecap:round;stroke-miterlimit:10;stroke-opacity:1" />
        <line
           class="cls-2"
           x1="832.34338"
           y1="1626.5312"
           x2="828.58795"
           y2="1630.2876"
           id="line11352"
           style="fill:none;stroke:#bab7b3;stroke-width:1.38706px;stroke-linecap:round;stroke-miterlimit:10;stroke-opacity:1" />
        <line
           class="cls-2"
           x1="832.34338"
           y1="1626.5312"
           x2="828.58795"
           y2="1622.7758"
           id="line11354"
           style="fill:none;stroke:#bab7b3;stroke-width:1.38706px;stroke-linecap:round;stroke-miterlimit:10;stroke-opacity:1" />
      </g>
    </g>
  </g>
  <g
     inkscape:groupmode="layer"
     id="layer2"
     inkscape:label="Layer 2"
     style="display:inline">
    <g
       aria-label="Aaron Sharpe"
       transform="matrix(0.26458333,0,0,0.26458333,-207.66616,-429.17592)"
       id="text26134"
       style="font-size:32.1081px;display:inline;fill:#231f20;stroke:#bab7b3;stroke-width:0.113769">
      <path
         d="m 883.24831,1651.8391 h -3.30802 l -2.28895,-6.5063 h -10.0965 l -2.28895,6.5063 h -3.15124 l 8.49736,-23.3442 h 4.13894 z m -6.55332,-9.1715 -4.0919,-11.4605 -4.10758,11.4605 z"
         style="fill:#bab7b3"
         id="path33441" />
      <path
         d="m 900.16463,1651.8391 h -2.93174 v -1.8656 q -0.39195,0.2665 -1.06609,0.7525 -0.65847,0.4703 -1.28558,0.7525 -0.73686,0.3606 -1.6932,0.5958 -0.95634,0.2508 -2.24192,0.2508 -2.36735,0 -4.01352,-1.5678 -1.64616,-1.5677 -1.64616,-3.9978 0,-1.9911 0.8466,-3.2139 0.86228,-1.2386 2.44573,-1.9441 1.59914,-0.7055 3.84106,-0.9563 2.24192,-0.2509 4.81308,-0.3763 v -0.4546 q 0,-1.0034 -0.36059,-1.6619 -0.34491,-0.6585 -1.00338,-1.0347 -0.62711,-0.3606 -1.50507,-0.486 -0.87795,-0.1255 -1.8343,-0.1255 -1.16015,0 -2.58683,0.3136 -1.42668,0.2979 -2.94742,0.878 h -0.15678 v -2.9945 q 0.86228,-0.2352 2.49277,-0.5174 1.63048,-0.2822 3.21394,-0.2822 1.84998,0 3.21395,0.3136 1.37964,0.2979 2.38302,1.0347 0.9877,0.7212 1.50507,1.8657 0.51736,1.1445 0.51736,2.8377 z m -2.93174,-4.3114 v -4.8758 q -1.34829,0.078 -3.18259,0.2352 -1.81862,0.1568 -2.88471,0.4547 -1.2699,0.3605 -2.05379,1.1288 -0.78389,0.7525 -0.78389,2.0851 0,1.5051 0.90931,2.2733 0.90931,0.7525 2.77497,0.7525 1.5521,0 2.83768,-0.5957 1.28557,-0.6115 2.38302,-1.4581 z"
         style="fill:#bab7b3"
         id="path33443" />
      <path
         d="m 916.76741,1637.541 h -0.15678 q -0.65847,-0.1568 -1.28558,-0.2195 -0.61143,-0.078 -1.45803,-0.078 -1.36397,0 -2.63387,0.6114 -1.2699,0.5958 -2.44573,1.5521 v 12.4325 h -2.94743 v -17.5121 h 2.94743 v 2.5869 q 1.75591,-1.411 3.08852,-1.9911 1.34829,-0.5958 2.74361,-0.5958 0.76821,0 1.11312,0.047 0.34491,0.031 1.03474,0.1411 z"
         style="fill:#bab7b3"
         id="path33445" />
      <path
         d="m 934.46762,1643.0909 q 0,4.28 -2.19489,6.7571 -2.19489,2.4771 -5.87917,2.4771 -3.71563,0 -5.91052,-2.4771 -2.17921,-2.4771 -2.17921,-6.7571 0,-4.28 2.17921,-6.7571 2.19489,-2.4928 5.91052,-2.4928 3.68428,0 5.87917,2.4928 2.19489,2.4771 2.19489,6.7571 z m -3.04149,0 q 0,-3.4021 -1.33261,-5.0482 -1.33261,-1.6619 -3.69996,-1.6619 -2.3987,0 -3.73131,1.6619 -1.31693,1.6461 -1.31693,5.0482 0,3.2923 1.33261,5.0012 1.33261,1.6932 3.71563,1.6932 2.35167,0 3.68428,-1.6775 1.34829,-1.6932 1.34829,-5.0169 z"
         style="fill:#bab7b3"
         id="path33447" />
      <path
         d="m 953.67291,1651.8391 h -2.94742 v -9.9711 q 0,-1.2071 -0.1411,-2.2576 -0.1411,-1.066 -0.51737,-1.6618 -0.39194,-0.6585 -1.1288,-0.972 -0.73686,-0.3293 -1.91269,-0.3293 -1.20719,0 -2.52412,0.5958 -1.31694,0.5958 -2.52413,1.5207 v 13.0753 h -2.94742 v -17.5121 h 2.94742 v 1.9441 q 1.37965,-1.1445 2.85336,-1.7873 1.47371,-0.6428 3.02581,-0.6428 2.83768,0 4.32707,1.7089 1.48939,1.7089 1.48939,4.9228 z"
         style="fill:#bab7b3"
         id="path33449" />
      <path
         d="m 987.8348,1645.1761 q 0,1.3639 -0.64278,2.6965 -0.62712,1.3326 -1.77159,2.2576 -1.25423,1.0034 -2.93175,1.5678 -1.66185,0.5644 -4.01351,0.5644 -2.52413,0 -4.54656,-0.4703 -2.00676,-0.4704 -4.0919,-1.3953 v -3.8881 h 0.21949 q 1.77159,1.4737 4.0919,2.2732 2.32031,0.7996 4.35842,0.7996 2.88472,0 4.48385,-1.0818 1.61481,-1.0817 1.61481,-2.8847 0,-1.5521 -0.76821,-2.2889 -0.75253,-0.7369 -2.30463,-1.1445 -1.17584,-0.3136 -2.55548,-0.5174 -1.36397,-0.2038 -2.90039,-0.5173 -3.1042,-0.6585 -4.60927,-2.242 -1.48939,-1.5991 -1.48939,-4.1546 0,-2.9317 2.47709,-4.7974 2.47709,-1.8813 6.28679,-1.8813 2.46141,0 4.5152,0.4703 2.05379,0.4704 3.63725,1.1602 v 3.6686 h -0.21949 q -1.33261,-1.1288 -3.51183,-1.8657 -2.16353,-0.7525 -4.43681,-0.7525 -2.49277,0 -4.01351,1.0347 -1.50507,1.0348 -1.50507,2.6652 0,1.4581 0.75254,2.289 0.75253,0.8309 2.64954,1.2699 1.00338,0.2195 2.85336,0.5331 1.84998,0.3135 3.13555,0.6427 2.60252,0.6899 3.91945,2.0852 1.31693,1.3953 1.31693,3.9038 z"
         style="fill:#bab7b3"
         id="path33451" />
      <path
         d="m 1007.2282,1651.8391 h -2.9474 v -9.9711 q 0,-1.2071 -0.1411,-2.2576 -0.1411,-1.066 -0.5174,-1.6618 -0.3919,-0.6585 -1.1288,-0.972 -0.7368,-0.3293 -1.9127,-0.3293 -1.20715,0 -2.52409,0.5958 -1.31693,0.5958 -2.52412,1.5207 v 13.0753 h -2.94742 v -24.3946 h 2.94742 v 8.8266 q 1.37964,-1.1445 2.85336,-1.7873 1.47371,-0.6428 3.02585,-0.6428 2.8376,0 4.327,1.7089 1.4894,1.7089 1.4894,4.9228 z"
         style="fill:#bab7b3"
         id="path33453" />
      <path
         d="m 1026.5119,1651.8391 h -2.9318 v -1.8656 q -0.3919,0.2665 -1.066,0.7525 -0.6585,0.4703 -1.2856,0.7525 -0.7369,0.3606 -1.6932,0.5958 -0.9564,0.2508 -2.2419,0.2508 -2.3674,0 -4.0136,-1.5678 -1.6461,-1.5677 -1.6461,-3.9978 0,-1.9911 0.8466,-3.2139 0.8623,-1.2386 2.4457,-1.9441 1.5991,-0.7055 3.8411,-0.9563 2.2419,-0.2509 4.813,-0.3763 v -0.4546 q 0,-1.0034 -0.3605,-1.6619 -0.345,-0.6585 -1.0034,-1.0347 -0.6271,-0.3606 -1.5051,-0.486 -0.8779,-0.1255 -1.8343,-0.1255 -1.1601,0 -2.5868,0.3136 -1.4267,0.2979 -2.9474,0.878 h -0.1568 v -2.9945 q 0.8623,-0.2352 2.4927,-0.5174 1.6305,-0.2822 3.214,-0.2822 1.85,0 3.2139,0.3136 1.3797,0.2979 2.3831,1.0347 0.9877,0.7212 1.505,1.8657 0.5174,1.1445 0.5174,2.8377 z m -2.9318,-4.3114 v -4.8758 q -1.3482,0.078 -3.1825,0.2352 -1.8187,0.1568 -2.8848,0.4547 -1.2699,0.3605 -2.0537,1.1288 -0.7839,0.7525 -0.7839,2.0851 0,1.5051 0.9093,2.2733 0.9093,0.7525 2.7749,0.7525 1.5521,0 2.8377,-0.5957 1.2856,-0.6115 2.383,-1.4581 z"
         style="fill:#bab7b3"
         id="path33455" />
      <path
         d="m 1043.1147,1637.541 h -0.1568 q -0.6585,-0.1568 -1.2856,-0.2195 -0.6114,-0.078 -1.458,-0.078 -1.364,0 -2.6339,0.6114 -1.2699,0.5958 -2.4457,1.5521 v 12.4325 h -2.9474 v -17.5121 h 2.9474 v 2.5869 q 1.7559,-1.411 3.0885,-1.9911 1.3483,-0.5958 2.7436,-0.5958 0.7682,0 1.1131,0.047 0.3449,0.031 1.0348,0.1411 z"
         style="fill:#bab7b3"
         id="path33457" />
      <path
         d="m 1061.3009,1642.8714 q 0,2.1322 -0.6114,3.9038 -0.6115,1.7559 -1.7246,2.9788 -1.0347,1.1601 -2.4457,1.8029 -1.3954,0.6271 -2.9631,0.6271 -1.364,0 -2.4771,-0.2979 -1.0975,-0.2978 -2.2419,-0.9249 v 7.3372 h -2.9475 v -23.9714 h 2.9475 v 1.8343 q 1.1758,-0.9877 2.6338,-1.6461 1.4737,-0.6742 3.1356,-0.6742 3.1669,0 4.9228,2.3987 1.7716,2.383 1.7716,6.6317 z m -3.0415,0.078 q 0,-3.1669 -1.0818,-4.7347 -1.0817,-1.5678 -3.3237,-1.5678 -1.2699,0 -2.5554,0.5488 -1.2856,0.5487 -2.4614,1.4423 v 9.9241 q 1.2542,0.5644 2.1478,0.7682 0.9093,0.2038 2.0538,0.2038 2.4614,0 3.8411,-1.6619 1.3796,-1.6618 1.3796,-4.9228 z"
         style="fill:#bab7b3"
         id="path33459" />
      <path
         d="m 1080.5532,1643.3888 h -12.9028 q 0,1.6148 0.486,2.822 0.486,1.1915 1.3326,1.9597 0.8153,0.7525 1.9284,1.1288 1.1288,0.3763 2.4771,0.3763 1.7872,0 3.5902,-0.7055 1.8186,-0.7212 2.5868,-1.411 h 0.1568 v 3.2139 q -1.4894,0.6271 -3.0415,1.0504 -1.5521,0.4233 -3.261,0.4233 -4.3584,0 -6.8041,-2.3516 -2.4458,-2.3674 -2.4458,-6.7101 0,-4.2957 2.336,-6.8199 2.3517,-2.5241 6.1771,-2.5241 3.5432,0 5.4558,2.0695 1.9284,2.0695 1.9284,5.8792 z m -2.869,-2.2576 q -0.016,-2.3203 -1.1759,-3.5902 -1.1444,-1.2699 -3.4961,-1.2699 -2.3673,0 -3.7783,1.3953 -1.3954,1.3953 -1.5835,3.4648 z"
         style="fill:#bab7b3"
         id="path33461" />
    </g>
  </g>
</svg>
